<?xml version="1.0" encoding="iso-8859-1"?>
<!-- Generator: Adobe Illustrator 28.5.0, SVG Export Plug-In . SVG Version: 9.03 Build 54727)  -->
<svg version="1.1" id="star" xmlns="http://www.w3.org/2000/svg" xmlns:xlink="http://www.w3.org/1999/xlink" x="0px" y="0px"
	 width="4000px" height="4000px" viewBox="0 0 4000 4000" enable-background="new 0 0 4000 4000" xml:space="preserve">
<g>
	<path fill="#FABE17" d="M795.043,3352.627c37.857-80.193,82.599-156.684,126.096-233.827
		c142.811-253.274,295.252-500.672,455.212-743.445c124.075-188.31,256.738-370.52,392-550.889
		c96.553-128.751,193.706-257.002,301.534-376.693c24.179-26.839,49.831-52.345,74.552-78.702
		c10.34-11.025,23.357-17.23,36.902-22.987c151.926-64.579,303.824-129.219,455.676-193.971c12.979-5.535,26.79-9.869,40.374-21.529
		c-32.517-11.901-63.649-10.965-93.717-13.908c-138.655-13.571-277.482-25.386-416.244-37.876
		c-54.811-4.933-109.604-10.073-164.424-14.896c-8.976-0.79-16.612-3.849-23.317-9.714c-49.842-43.6-100.005-86.839-149.448-130.887
		c-29.091-25.918-36.798-57.716-24.008-90.669c12.763-32.884,40.696-51.728,78.277-52.462
		c166.061-3.247,332.119-6.745,498.192-9.156c17.868-0.26,25.778-8.121,33.298-22.139
		c66.697-124.313,133.801-248.407,200.976-372.463c8.951-16.53,17.285-33.397,33.417-45.081
		c53.398-38.675,116.684-19.742,136.091,42.969c34.067,110.083,66.412,220.698,99.677,331.03
		c11.416,37.863,24.247,75.321,34.763,113.424c4.198,15.212,12.168,20.748,26.896,21.865
		c93.468,7.091,186.912,14.497,280.341,22.075c65.994,5.353,132.012,10.533,197.903,16.979c35.27,3.45,61.555,29.656,68.136,64.448
		c6.866,36.297-7.542,66.99-41.742,86.397c-115.967,65.807-232.097,131.328-348.171,196.946
		c-32.948,18.626-65.779,37.462-98.945,55.691c-13.014,7.152-17.244,15.28-14.044,31.148
		c30.254,150.055,59.563,300.302,88.894,450.543c8.041,41.188-4.058,71.228-34.869,89.364
		c-29.042,17.095-62.762,13.501-93.603-10.566c-25.691-20.048-51.012-40.572-76.495-60.884c-1.955-1.794-3.912-3.588-5.868-5.382
		c0,0,0.517,0.664,0.518,0.657c-1.679-7.873-7.108-11.069-14.583-11.718c0,0-0.177-0.114-0.178-0.114
		c-23.048-34.198-54.523-60.661-86.208-85.465c-60.63-47.463-119.663-96.803-178.844-145.97
		c-13.833-11.493-22.403-12.055-37.511-1.209c-92.475,66.388-182.447,135.862-270.353,208.222
		c-75.306,61.99-151.366,123.032-223.621,188.609c-58.381,52.984-118.158,104.562-174.445,159.694
		c-114.157,111.816-227.936,224.081-335.975,341.942c-4.47,4.007-9.371,7.63-13.347,12.079
		c-99.023,110.847-198.161,221.568-294.439,334.859c-121.373,142.822-235.604,291.129-347.341,441.502
		C860.324,3264.484,833.334,3312.767,795.043,3352.627z M2204.165,800.758c0-0.099,0-0.198,0-0.297
		c-73.102,0-146.203-0.054-219.304,0.039c-17.638,0.023-36.108,0.005-38.651,23.799c-1.995,18.665,13.237,31.777,37.823,32.537
		c125.474,3.877,250.96,7.363,376.436,11.171c84.658,2.569,144.816-32.792,179.741-111.5
		c28.567-64.38,59.686-127.632,89.945-191.255c29.887-62.842,60.054-125.551,90.23-188.255c8.167-16.97,7.176-33.089-9.241-43.094
		c-15.411-9.392-26.021,1.241-37.111,12.81c-22.475,23.447-25.323,55.395-39.035,82.566
		c-57.306,113.549-113.906,227.467-169.251,341.98c-10.049,20.792-21.871,30.088-44.871,29.815
		C2348.647,800.215,2276.403,800.758,2204.165,800.758z M3193.899,970.694c22.02,0.388,40.515,6.03,43.018-19.302
		c2.494-25.248-16.124-27.178-33.235-29.572c-28.036-3.922-56.203-6.951-84.349-10.042c-47.764-5.245-95.544-10.359-143.343-15.281
		c-14.841-1.528-29.193,1.129-31.427,18.601c-2.218,17.337,8.996,26.627,25.333,29.889c4.203,0.839,8.48,1.354,12.744,1.837
		C3055.095,955.027,3127.553,963.202,3193.899,970.694z M3373.087,942.764c-0.499-26.852-16.503-44.197-40.077-43.433
		c-25.195,0.816-44.402,19.66-44.422,43.583c-0.022,25.494,17.951,43.212,43.748,43.127
		C3356.064,985.963,3373.544,967.4,3373.087,942.764z"/>
	<path fill="#6CCAD7" d="M2844.698,1763.617c-34.535,67.194-68.81,134.524-103.661,201.555
		c-71.375,137.276-143.086,274.376-214.51,411.626c-2.624,5.043-7.025,9.883-5,17.393c58.288-3.49,113.022-25.504,174.29-35.573
		c-54.29,60.588-105.844,117.979-157.241,175.51c-141.443,158.322-282.669,316.838-424.302,474.991
		c-56.196,62.751-113.202,124.778-169.973,187.012c-3.956,4.337-9.029,7.655-13.583,11.446c0,0-0.609-0.618-0.609-0.618
		c-1.394-10.31,5.04-17.941,9.27-26.198c84.583-165.115,175.024-327.091,262.912-490.436
		c38.654-71.842,77.3-143.688,115.677-215.677c4.36-8.179,10.895-15.652,10.922-25.758c0.629-1.039,1.269-2.068,1.908-3.097
		c-1.062,0.604-2.125,1.208-3.187,1.813c-59.97,7.492-116.039,30.557-174.581,43.756c-10.715,2.416-21.333,5.266-35.233,8.72
		c17-30.195,40.331-50.756,60.543-73.44c166.936-187.344,334.724-373.927,502.117-560.864
		c34.961-39.042,69.317-78.625,104.044-117.877c5.658-6.395,11.039-13.408,20.367-14.862
		C2821.382,1739.012,2832.538,1751.969,2844.698,1763.617z"/>
	<path fill="#F27D2F" d="M2768.906,1680.738c-60.63-47.462-119.664-96.803-178.845-145.97
		c-13.833-11.493-22.403-12.055-37.511-1.209c-92.475,66.388-182.447,135.862-270.353,208.222
		c-75.307,61.989-151.366,123.032-223.622,188.608c-58.381,52.984-118.158,104.562-174.445,159.695
		c-114.156,111.816-227.936,224.08-335.975,341.941c-4.469,4.008-9.371,7.63-13.347,12.08
		c-99.023,110.847-198.161,221.568-294.439,334.859c-121.373,142.822-235.604,291.129-347.34,441.503
		c-32.707,44.017-59.697,92.3-97.984,132.154c-68.004,124.124-136.012,248.253-204.973,374.122
		c16.817,2.972,19.923-6.76,24.93-12.895c122.822-150.511,242.508-303.482,370.482-449.9
		c166.406-190.39,332.258-381.223,502.984-567.765c56.87-62.138,114.184-123.868,171.295-185.784
		c32.409-33.172,64.999-66.169,97.196-99.545c154.63-160.295,313.485-316.255,478.217-466.184
		c122.177-111.2,249.325-216.631,375-323.781c19.111-16.293,32.923-16.404,50.348,0.439c11.668,11.279,25.859,19.909,38.585,30.141
		c34.708,27.902,73.177,50.922,105.761,81.567c16.512,5.976,27.668,18.933,39.828,30.581c3.472,0.862,6.943,1.725,10.415,2.587
		C2832.065,1732.006,2800.59,1705.542,2768.906,1680.738z"/>
	<path fill="#6CCAD7" d="M1406.132,1393.879c-34.927-13.521-69.938-26.833-104.708-40.749c-6.548-2.621-16.942-3.443-15.817-13.838
		c0.913-8.435,9.996-8.806,16.259-10.176c266.521-58.32,531.655-122.945,799.355-175.898c0.795-0.157,1.68,0.138,9.397,0.909
		c-187.397,94.279-369.618,185.954-555.365,279.402c23.752,18.573,49.36,24.289,70.866,37.398
		c6.981,4.255,18.552,5.723,16.998,16.466c-1.273,8.806-11.615,8.603-18.862,10.452c-231.224,58.99-462.454,117.952-693.716,176.793
		c-10.254,2.609-25.115,10.804-29.836-1.452c-4.888-12.693,12.4-16.164,21.346-20.908
		c132.882-70.46,265.892-140.681,399.223-210.286C1349.371,1427.324,1375.42,1408.765,1406.132,1393.879z"/>
	<path fill="#FABE17" d="M1216.525,648.507c4.473-25.345,7.4-51.095,13.934-75.895c4.279-16.242-0.376-25.823-12.381-35.333
		c-18.16-14.385-35.565-29.726-53.257-44.701c-7.185-6.081-16.164-11.819-12.413-23.126c3.567-10.753,14.273-11.623,23.376-13.105
		c24.567-4,49.161-8.565,73.928-10.34c16.4-1.175,24.328-8.793,30.085-22.897c9.728-23.832,20.524-47.236,31.243-70.649
		c3.881-8.475,7.53-18.95,18.58-19.307c12.354-0.399,17.018,10.527,21.149,19.848c10.083,22.752,20.304,45.513,28.768,68.887
		c5.643,15.583,13.655,23.39,31.312,24.253c24.792,1.211,49.441,5.694,74.094,9.18c9.393,1.328,19.312,3.224,21.91,14.598
		c2.27,9.938-4.566,16.156-11.141,21.684c-18.394,15.463-36.785,30.961-55.786,45.658c-12.21,9.444-16.553,19.259-12.478,35.365
		c6.085,24.049,9.923,48.851,12.453,73.565c2.473,24.159-9.853,31.828-31.309,20.215c-19.606-10.611-39.434-21.362-57.187-34.686
		c-16.798-12.607-30.441-10.362-46.484,0.239c-19.304,12.757-39.133,24.987-59.778,35.371
		C1225.35,677.284,1215.387,669.882,1216.525,648.507z"/>
	<path fill="#FAC354" d="M3690.64,1919.665c0.376,19.221-10.835,26.172-28.913,16.385c-18.086-9.792-35.914-20.387-52.537-32.448
		c-12.369-8.975-22.708-9.401-35.228-1.326c-16.604,10.71-33.735,20.637-50.956,30.337c-7.979,4.494-16.652,11.656-26.141,4.949
		c-10.32-7.294-6.535-18.729-5.035-28.638c2.824-18.668,5.002-37.652,10.308-55.662c4.549-15.441-1.266-24.466-12.188-33.061
		c-16.203-12.75-33.079-24.823-48.069-38.889c-14.924-14.003-11.122-26.263,8.903-30.233c22.72-4.505,45.727-7.724,68.718-10.642
		c14.87-1.887,24.924-7.034,30.276-22.839c6.863-20.266,16.903-39.466,25.757-59.043c3.623-8.012,7.896-15.735,18.559-15.108
		c9.173,0.539,13.047,7.291,16.222,14.619c8.885,20.509,18.032,40.91,26.495,61.592c5.821,14.226,14.813,21.29,31.084,21.962
		c19.637,0.81,39.172,4.67,58.685,7.647c9.296,1.419,19.666,2.528,22.931,13.586c3.079,10.43-5.708,15.481-11.962,20.882
		c-15.599,13.473-31.326,26.845-47.662,39.4c-10.694,8.218-14.9,16.147-10.95,30.622
		C3684.785,1875.196,3686.945,1897.641,3690.64,1919.665z"/>
	<path fill="#6CCAD7" d="M819.965,2513.842c4.055-18.634,7.853-38.867,13.005-58.749c3.229-12.461,0.724-20.707-10.149-28.49
		c-14.621-10.467-28.468-22.278-41.353-34.84c-15.321-14.935-11.067-27.616,9.818-32.433c5.847-1.349,11.976-3.723,17.684-3.073
		c48.5,5.528,70.761-21.71,82.79-63.797c3.088-10.804,5.784-25.347,21.118-26.021c17.271-0.759,20.536,15.288,23.329,26.552
		c10.888,43.917,34.885,68.332,82.769,63.061c5.687-0.626,11.821,1.857,17.62,3.384c19.514,5.135,23.337,16.784,9.108,31.104
		c-11.466,11.539-24.126,22.046-37.111,31.882c-14.628,11.081-20.433,23.029-14.385,42.008c5.137,16.119,6.926,33.659,7.784,50.692
		c0.951,18.891-11.516,27.718-25.958,16.01c-44.162-35.8-85.339-35.418-129.725-0.158
		C831.671,2542.601,819.761,2533.55,819.965,2513.842z"/>
	<path fill="#FAC354" d="M626.909,1083.423c-8.53-0.837-11.798-6.971-12.494-14.11c-3.066-31.482-24.24-45.053-51.208-53.943
		c-7.541-2.486-19.479-3.617-18.724-14.367c0.674-9.606,11.288-12.07,19.679-13.857c27.389-5.834,43.595-21.548,48.597-49.779
		c1.447-8.166,3.434-20.998,15.822-20.157c9.963,0.676,11.922,11.734,14.098,19.684c7.646,27.939,22.286,47.911,53.125,52.349
		c5.55,0.799,12.735,3.155,13.676,10.128c1.175,8.71-6.441,12.301-12.785,13.751c-31.972,7.307-50.56,27.034-57.663,58.654
		C637.697,1077.719,634.164,1082.884,626.909,1083.423z"/>
	<path fill="#FAC354" d="M3060.974,2380.462c-31.999-0.095-50.671-18.791-50.807-50.875c-0.135-31.878,21.55-54.654,51.776-54.38
		c26.91,0.244,50.162,25.416,50.272,54.423C3112.333,2360.303,3091.919,2380.553,3060.974,2380.462z"/>
	<path fill="#FABE17" d="M1216.143,1847.27c5.714,1.441,9.081,5.723,9.556,10.951c2.352,25.869,18.272,39.394,41.296,46.85
		c4.961,1.607,11.065,3.474,11.496,8.955c0.571,7.251-6.559,9.44-12.01,11.56c-22.253,8.653-43.129,18.205-43.512,47.176
		c-0.058,4.364-3.725,8.203-8.319,8.483c-4.806,0.293-8.341-3.55-8.733-7.914c-2.681-29.834-23.58-41.637-48.335-49.997
		c-4.007-1.353-8.716-3.403-8.307-8.522c0.384-4.802,4.956-6.794,9.116-7.632c27.689-5.577,43.333-22.309,47.837-50.108
		C1207.027,1852.141,1209.388,1847.042,1216.143,1847.27z"/>
	<path fill="#FAC354" d="M296.767,2827.018c25.748-0.176,46.914,21.386,47.071,47.95c0.157,26.773-20.309,47.26-47.088,47.136
		c-26.188-0.122-47.098-21.742-46.596-48.177C250.591,2850.874,274.143,2827.173,296.767,2827.018z"/>
	<path fill="#FABE17" d="M2224.074,339.822c-16.013,11.132-38.243,13.945-49.379,33.665c-4.954,8.772-1.733,25.418-12.795,25.85
		c-14.232,0.556-9.246-17.419-14.93-26.252c-8.075-12.551-19.706-18.49-32.711-23.577c-6.026-2.357-14.649-3.519-14.151-12.523
		c0.416-7.514,8.197-8.662,13.546-9.93c20.893-4.953,32.224-17.884,36.438-38.621c1.259-6.193,2.095-15.556,10.562-15.9
		c8.392-0.341,10.647,8.215,11.639,14.853c3.36,22.482,16.93,34.57,37.943,40.462
		C2215.707,329.383,2222.047,331.375,2224.074,339.822z"/>
	<path fill="#FAC354" d="M1488.962,3294.69c0.313,23.795-20.067,44.884-43.69,45.209c-24.526,0.338-45.203-20.835-45.19-46.274
		c0.012-23.155,21.018-43.651,44.785-43.7C1468.413,3249.878,1488.642,3270.415,1488.962,3294.69z"/>
	<path fill="#EF9A1B" d="M3347.218,2189.138c19.908,1.838,30.184,11.66,29.527,29.97c-0.675,18.823-11.544,31.187-30.493,30.643
		c-19.231-0.552-28.868-13.767-27.925-32.723C3319.25,2198.451,3331.619,2190.854,3347.218,2189.138z"/>
	<path fill="#EF9A1B" d="M1106.435,960.085c-1.475,19.224-11.462,30.197-29.113,30.426c-18.088,0.235-28.628-11.637-28.598-29.195
		c0.033-18.536,10.63-31.091,30.039-30.64C1097.16,931.105,1104.837,944.059,1106.435,960.085z"/>
	<path fill="#EF9A1B" d="M2855.291,1766.318c7.475,0.649,12.905,3.846,14.583,11.718
		C2863.139,1776.464,2858.995,1771.665,2855.291,1766.318z"/>
	<path fill="#EF9A1B" d="M2869.356,1777.379c1.957,1.794,3.914,3.589,5.868,5.382
		C2873.267,1780.967,2871.312,1779.173,2869.356,1777.379z"/>
	<path fill="#6CCAD7" d="M1930.719,3207.575c-1.005,0.774-2.01,1.549-3.014,2.323c0.807-0.975,1.614-1.951,2.413-2.933
		C1930.11,3206.957,1930.719,3207.575,1930.719,3207.575z"/>
</g>
<g>
</g>
<g>
</g>
<g>
</g>
<g>
</g>
<g>
</g>
<g>
</g>
<g>
</g>
<g>
</g>
<g>
</g>
<g>
</g>
<g>
</g>
<g>
</g>
<g>
</g>
<g>
</g>
<g>
</g>
</svg>
